<mxfile host="app.diagrams.net" modified="2020-12-28T06:24:32.661Z" agent="5.0 (Windows NT 10.0; Win64; x64) AppleWebKit/537.36 (KHTML, like Gecko) Chrome/87.0.4280.88 Safari/537.36" etag="S4nqowk9VFHz0HK_mlQ-" version="14.1.2" type="github">
  <diagram id="C5RBs43oDa-KdzZeNtuy" name="Page-1">
    <mxGraphModel dx="1422" dy="762" grid="1" gridSize="10" guides="1" tooltips="1" connect="1" arrows="1" fold="1" page="1" pageScale="1" pageWidth="827" pageHeight="1169" math="0" shadow="0">
      <root>
        <mxCell id="WIyWlLk6GJQsqaUBKTNV-0" />
        <mxCell id="WIyWlLk6GJQsqaUBKTNV-1" parent="WIyWlLk6GJQsqaUBKTNV-0" />
        <mxCell id="3GXz4HBgaYL-Qcx7xuLE-6" value="t通过" style="edgeStyle=orthogonalEdgeStyle;rounded=0;orthogonalLoop=1;jettySize=auto;html=1;entryX=0.5;entryY=0;entryDx=0;entryDy=0;" edge="1" parent="WIyWlLk6GJQsqaUBKTNV-1" source="3GXz4HBgaYL-Qcx7xuLE-0" target="3GXz4HBgaYL-Qcx7xuLE-3">
          <mxGeometry relative="1" as="geometry" />
        </mxCell>
        <mxCell id="3GXz4HBgaYL-Qcx7xuLE-12" style="edgeStyle=orthogonalEdgeStyle;rounded=0;orthogonalLoop=1;jettySize=auto;html=1;entryX=1;entryY=0.5;entryDx=0;entryDy=0;" edge="1" parent="WIyWlLk6GJQsqaUBKTNV-1" source="3GXz4HBgaYL-Qcx7xuLE-0" target="3GXz4HBgaYL-Qcx7xuLE-15">
          <mxGeometry relative="1" as="geometry">
            <mxPoint x="220" y="600" as="targetPoint" />
            <Array as="points">
              <mxPoint x="230" y="150" />
              <mxPoint x="230" y="680" />
            </Array>
          </mxGeometry>
        </mxCell>
        <mxCell id="3GXz4HBgaYL-Qcx7xuLE-13" value="未通过" style="edgeLabel;html=1;align=center;verticalAlign=middle;resizable=0;points=[];" vertex="1" connectable="0" parent="3GXz4HBgaYL-Qcx7xuLE-12">
          <mxGeometry x="-0.2151" relative="1" as="geometry">
            <mxPoint as="offset" />
          </mxGeometry>
        </mxCell>
        <mxCell id="3GXz4HBgaYL-Qcx7xuLE-0" value="获取参数并验证参数" style="rounded=1;whiteSpace=wrap;html=1;" vertex="1" parent="WIyWlLk6GJQsqaUBKTNV-1">
          <mxGeometry x="80" y="120" width="120" height="60" as="geometry" />
        </mxCell>
        <mxCell id="3GXz4HBgaYL-Qcx7xuLE-8" style="edgeStyle=orthogonalEdgeStyle;rounded=0;orthogonalLoop=1;jettySize=auto;html=1;entryX=0.5;entryY=0;entryDx=0;entryDy=0;" edge="1" parent="WIyWlLk6GJQsqaUBKTNV-1" source="3GXz4HBgaYL-Qcx7xuLE-1" target="3GXz4HBgaYL-Qcx7xuLE-2">
          <mxGeometry relative="1" as="geometry" />
        </mxCell>
        <mxCell id="3GXz4HBgaYL-Qcx7xuLE-1" value="获取图片宽高" style="rounded=1;whiteSpace=wrap;html=1;" vertex="1" parent="WIyWlLk6GJQsqaUBKTNV-1">
          <mxGeometry x="80" y="310" width="120" height="60" as="geometry" />
        </mxCell>
        <mxCell id="3GXz4HBgaYL-Qcx7xuLE-9" style="edgeStyle=orthogonalEdgeStyle;rounded=0;orthogonalLoop=1;jettySize=auto;html=1;entryX=0.5;entryY=0;entryDx=0;entryDy=0;" edge="1" parent="WIyWlLk6GJQsqaUBKTNV-1" source="3GXz4HBgaYL-Qcx7xuLE-2" target="3GXz4HBgaYL-Qcx7xuLE-4">
          <mxGeometry relative="1" as="geometry" />
        </mxCell>
        <mxCell id="3GXz4HBgaYL-Qcx7xuLE-2" value="插入发言数据（db操作）" style="rounded=1;whiteSpace=wrap;html=1;" vertex="1" parent="WIyWlLk6GJQsqaUBKTNV-1">
          <mxGeometry x="80" y="410" width="120" height="60" as="geometry" />
        </mxCell>
        <mxCell id="3GXz4HBgaYL-Qcx7xuLE-7" style="edgeStyle=orthogonalEdgeStyle;rounded=0;orthogonalLoop=1;jettySize=auto;html=1;" edge="1" parent="WIyWlLk6GJQsqaUBKTNV-1" source="3GXz4HBgaYL-Qcx7xuLE-3" target="3GXz4HBgaYL-Qcx7xuLE-1">
          <mxGeometry relative="1" as="geometry" />
        </mxCell>
        <mxCell id="3GXz4HBgaYL-Qcx7xuLE-3" value="分图片视频商品组装数据" style="rounded=1;whiteSpace=wrap;html=1;" vertex="1" parent="WIyWlLk6GJQsqaUBKTNV-1">
          <mxGeometry x="80" y="210" width="120" height="60" as="geometry" />
        </mxCell>
        <mxCell id="3GXz4HBgaYL-Qcx7xuLE-10" style="edgeStyle=orthogonalEdgeStyle;rounded=0;orthogonalLoop=1;jettySize=auto;html=1;" edge="1" parent="WIyWlLk6GJQsqaUBKTNV-1" source="3GXz4HBgaYL-Qcx7xuLE-4" target="3GXz4HBgaYL-Qcx7xuLE-5">
          <mxGeometry relative="1" as="geometry" />
        </mxCell>
        <mxCell id="3GXz4HBgaYL-Qcx7xuLE-4" value="缓存发言数据（redis操作）" style="rounded=1;whiteSpace=wrap;html=1;" vertex="1" parent="WIyWlLk6GJQsqaUBKTNV-1">
          <mxGeometry x="80" y="490" width="120" height="50" as="geometry" />
        </mxCell>
        <mxCell id="3GXz4HBgaYL-Qcx7xuLE-16" style="edgeStyle=orthogonalEdgeStyle;rounded=0;orthogonalLoop=1;jettySize=auto;html=1;entryX=0.5;entryY=0;entryDx=0;entryDy=0;" edge="1" parent="WIyWlLk6GJQsqaUBKTNV-1" source="3GXz4HBgaYL-Qcx7xuLE-5" target="3GXz4HBgaYL-Qcx7xuLE-15">
          <mxGeometry relative="1" as="geometry" />
        </mxCell>
        <mxCell id="3GXz4HBgaYL-Qcx7xuLE-5" value="发送发言的xmpp" style="rounded=1;whiteSpace=wrap;html=1;" vertex="1" parent="WIyWlLk6GJQsqaUBKTNV-1">
          <mxGeometry x="80" y="570" width="120" height="40" as="geometry" />
        </mxCell>
        <mxCell id="3GXz4HBgaYL-Qcx7xuLE-15" value="结束" style="rounded=0;whiteSpace=wrap;html=1;" vertex="1" parent="WIyWlLk6GJQsqaUBKTNV-1">
          <mxGeometry x="80" y="650" width="120" height="60" as="geometry" />
        </mxCell>
      </root>
    </mxGraphModel>
  </diagram>
</mxfile>
